<svg xmlns="http://www.w3.org/2000/svg" width="709.037" height="699.32" viewBox="0 0 709.037 699.32">
  <defs>
    <style>
      .cls-1 {
        fill: rgba(170,22,197,0.12);
      }

      .cls-2 {
        fill: rgba(170,22,197,0.14);
      }
    </style>
  </defs>
  <g id="Moon-bg" transform="translate(-1019.284 -166.98)">
    <path id="Path_67" data-name="Path 67" class="cls-1" d="M311.341,38.8s222.2,79.282,222.2,228.3-244.982,200.706-392.3,200.706S.036,416.123.036,267.1c0-69.444,36.451-198.917,79.091-246.775C127.917-34.435,311.341,38.8,311.341,38.8Z" transform="translate(1313.685 166.98) rotate(39)"/>
    <path id="Path_69" data-name="Path 69" class="cls-2" d="M299.121,26.518s204.591,71.84,204.591,206.874S342.277,439.582,206.627,439.582,0,328.839,0,193.805C0,130.88,76.819,63.988,116.08,20.622,161-29,299.121,26.518,299.121,26.518Z" transform="translate(1200.187 223.852) rotate(24)"/>
  </g>
</svg>
