<svg id="e6GNkqFOlKP1" xmlns="http://www.w3.org/2000/svg" xmlns:xlink="http://www.w3.org/1999/xlink" viewBox="0 0 709.037 699.32" shape-rendering="geometricPrecision" text-rendering="geometricPrecision"><style><![CDATA[#e6GNkqFOlKP4_to {animation: e6GNkqFOlKP4_to__to 3000ms linear infinite normal forwards}@keyframes e6GNkqFOlKP4_to__to { 0% {transform: translate(1313.685059px,166.979996px)} 53.333333% {transform: translate(1320.60058px,169.552299px)} 100% {transform: translate(1313.685059px,166.979996px)}} #e6GNkqFOlKP4_ts {animation: e6GNkqFOlKP4_ts__ts 3000ms linear infinite normal forwards}@keyframes e6GNkqFOlKP4_ts__ts { 0% {transform: rotate(38.999999deg) scale(1,1)} 53.333333% {transform: rotate(38.999999deg) scale(0.98,0.98125)} 100% {transform: rotate(38.999999deg) scale(1,1)}} #e6GNkqFOlKP4 {animation: e6GNkqFOlKP4_c_o 3000ms linear infinite normal forwards}@keyframes e6GNkqFOlKP4_c_o { 0% {opacity: 1} 53.333333% {opacity: 0.786667} 100% {opacity: 1}} #e6GNkqFOlKP5_to {animation: e6GNkqFOlKP5_to__to 3000ms linear infinite normal forwards}@keyframes e6GNkqFOlKP5_to__to { 0% {transform: translate(1200.187012px,223.852005px)} 40% {transform: translate(1199.224913px,218.155319px)} 100% {transform: translate(1200.187012px,223.852005px)}} #e6GNkqFOlKP5 {animation: e6GNkqFOlKP5_c_o 3000ms linear infinite normal forwards}@keyframes e6GNkqFOlKP5_c_o { 0% {opacity: 1} 60% {opacity: 0.56} 100% {opacity: 1}} #e6GNkqFOlKP47_to {animation: e6GNkqFOlKP47_to__to 3000ms linear infinite normal forwards}@keyframes e6GNkqFOlKP47_to__to { 0% {transform: translate(2697.092513px,397.39851px)} 50% {transform: translate(2697.092513px,394.311278px)} 100% {transform: translate(2697.092513px,397.39851px)}} #e6GNkqFOlKP47_tr {animation: e6GNkqFOlKP47_tr__tr 3000ms linear infinite normal forwards}@keyframes e6GNkqFOlKP47_tr__tr { 0% {transform: rotate(147.267725deg)} 50% {transform: rotate(147.279738deg)} 100% {transform: rotate(147.267725deg)}} #e6GNkqFOlKP47_ts {animation: e6GNkqFOlKP47_ts__ts 3000ms linear infinite normal forwards}@keyframes e6GNkqFOlKP47_ts__ts { 0% {transform: scale(1.000473,1.000473)} 50% {transform: scale(1.000473,1.000473)} 100% {transform: scale(1.000473,1.000473)}}]]></style><defs><radialGradient id="e6GNkqFOlKP46-fill" cx="0" cy="0" r="0.766" spreadMethod="pad" gradientUnits="objectBoundingBox" gradientTransform="matrix(0.971 -0.24 0.256 1.038 0.776279 0.49224)"><stop id="e6GNkqFOlKP46-fill-0" offset="0%" stop-color="#54b5ff"/><stop id="e6GNkqFOlKP46-fill-1" offset="49.8%" stop-color="#7a3ffe"/><stop id="e6GNkqFOlKP46-fill-2" offset="100%" stop-color="#aa3ffe"/></radialGradient><radialGradient id="e6GNkqFOlKP48-fill" cx="0" cy="0" r="0.766" spreadMethod="pad" gradientUnits="objectBoundingBox" gradientTransform="matrix(0.971 -0.24 0.256 1.038 0.776279 0.49224)"><stop id="e6GNkqFOlKP48-fill-0" offset="0%" stop-color="#54b5ff"/><stop id="e6GNkqFOlKP48-fill-1" offset="49.8%" stop-color="#7a3ffe"/><stop id="e6GNkqFOlKP48-fill-2" offset="100%" stop-color="#aa3ffe"/></radialGradient></defs><g transform="translate(-1020.430799-161.901004)"><g><g id="e6GNkqFOlKP4_to" transform="translate(1313.685059,166.979996)"><g id="e6GNkqFOlKP4_ts" transform="rotate(38.999999) scale(1,1)"><path id="e6GNkqFOlKP4" d="M311.341,38.8c0,0,222.2,79.282,222.2,228.3s-244.982,200.706-392.3,200.706-141.205-51.683-141.205-200.706c0-69.444,36.451-198.917,79.091-246.775C127.917,-34.435,311.341,38.8,311.341,38.8Z" transform="translate(0,0)" fill="rgba(170,22,197,0.12)"/></g></g><g id="e6GNkqFOlKP5_to" transform="translate(1200.187012,223.852005)"><path id="e6GNkqFOlKP5" d="M299.121,26.518c0,0,204.591,71.84,204.591,206.874s-161.435,206.19-297.085,206.19-206.627-110.743-206.627-245.777C0,130.88,76.819,63.988,116.08,20.622C161,-29,299.121,26.518,299.121,26.518Z" transform="rotate(24.000001) translate(0,0)" fill="rgba(170,22,197,0.14)"/></g></g><g transform="matrix(-.485-.875 0.875-.485 1171.802979 1159.128052)"><g transform="matrix(.707107-.707107 0.707107 0.707107 0 466.703003)"><g transform="matrix(-.961 0.276-.276-.961 660.017024 512.935975)" opacity="0.46"><ellipse rx="266.803" ry="266.803" transform="translate(266.803 266.803)" fill="none" stroke-dasharray="10"/><ellipse rx="266.303" ry="266.303" transform="matrix(.979253-.20264 0.20264 0.979253 266.802998 266.803002)" fill="none" stroke="#fff" stroke-dasharray="10"/></g><g transform="matrix(-.96 0.28-.28-.96 750.090027 581.659973)"><path d="M198.1,0C307.505,0,396.2,88.691,396.2,198.1s-88.691,198.1-198.1,198.1-198.1-88.7-198.1-198.1C0,88.7,88.691,0,198.1,0Z" transform="matrix(-.961262-.275637 0.275637-.961262 470.209991 602.820007)" fill="#f0f0f0"/></g><g transform="matrix(1 0 0 0.974596 0 8.405254)"><path d="M110.019,396.193c-4.578,0-9.209-.154-13.763-.459-10.379946-7.886229-20.000719-16.724604-28.737-26.4-11.944668-13.069368-22.521674-27.325843-31.566-42.547-17.031994-28.530588-28.294489-60.128634-33.148-93C0.931468,221.029611,-0.006035,208.152226,0,195.258c0-9.509.34-18.866,1.01-27.809.644-8.594,1.611-17.037,2.873-25.1c1.21-7.724,2.723-15.3,4.5-22.518c1.7-6.9,3.678-13.653,5.887-20.076c3.941163-11.565609,8.960915-22.735086,14.993-33.361c5.099261-8.944772,11.028718-17.38998,17.71-25.224C52.605115,34.584427,58.804587,28.506086,65.5,23.005c5.496241-4.507964,11.333362-8.583484,17.459-12.19c7.583184-4.539001,15.678088-8.162322,24.115-10.794.984-.014,1.974-.021,2.945-.021c13.573531-.003246,27.113658,1.345072,40.42,4.025c51.205625,10.331095,96.366047,40.218736,125.888,83.314c7.242723,10.589003,13.43569,21.858992,18.491,33.65c5.123942,11.974202,9.037419,24.430863,11.682,37.184c5.432865,26.338424,5.432865,53.508576,0,79.847-2.644522,12.751737-6.557659,25.207044-11.681,37.18-5.055327,11.790999-11.248294,23.060987-18.491,33.65-29.530101,43.086984-74.686812,72.97217-125.888,83.314-13.306533,2.681351-26.847001,4.031009-40.421,4.029Z" transform="translate(217.546997 131.809006)" fill="#fff"/><g transform="matrix(-.96 0.28-.28-.96 750.090027 581.659973)"><path d="M110.019,396.193c-4.578,0-9.209-.154-13.763-.459-10.379946-7.886229-20.000719-16.724604-28.737-26.4-11.944668-13.069368-22.521674-27.325843-31.566-42.547-17.031994-28.530588-28.294489-60.128634-33.148-93C0.931468,221.029611,-0.006035,208.152226,0,195.258c0-9.509.34-18.866,1.01-27.809.644-8.594,1.611-17.037,2.873-25.1c1.21-7.724,2.723-15.3,4.5-22.518c1.7-6.9,3.678-13.653,5.887-20.076c3.941163-11.565609,8.960915-22.735086,14.993-33.361c5.099261-8.944772,11.028718-17.38998,17.71-25.224C52.605115,34.584427,58.804587,28.506086,65.5,23.005c5.496241-4.507964,11.333362-8.583484,17.459-12.19c7.583184-4.539001,15.678088-8.162322,24.115-10.794.984-.014,1.974-.021,2.945-.021c13.573531-.003246,27.113658,1.345072,40.42,4.025c51.205625,10.331095,96.366047,40.218736,125.888,83.314c7.242723,10.589003,13.43569,21.858992,18.491,33.65c5.123942,11.974202,9.037419,24.430863,11.682,37.184c5.432865,26.338424,5.432865,53.508576,0,79.847-2.644522,12.751737-6.557659,25.207044-11.681,37.18-5.055327,11.790999-11.248294,23.060987-18.491,33.65-29.530101,43.086984-74.686812,72.97217-125.888,83.314-13.306533,2.681351-26.847001,4.031009-40.421,4.029Z" transform="matrix(-.961262-.275637 0.275637-.961262 387.920013 579.219971)" fill="#fff"/></g></g></g><g><path d="M18.127,0c7.671205-.052471,14.782249,4.009971,18.633079,10.644823s3.850829,14.824503,0,21.459354-10.961874,10.697294-18.633079,10.644823C6.322,42.749,0,44.506,0,32.7s6.322-32.7,18.127-32.7Z" transform="translate(325.615997 466.614014)" fill="#fff"/><g transform="matrix(-.48 0.87-.87-.48 941.690002 347.609985)"><path d="M18.127,0c7.671205-.052471,14.782249,4.009971,18.633079,10.644823s3.850829,14.824503,0,21.459354-10.961874,10.697294-18.633079,10.644823C6.322,42.749,0,44.506,0,32.7s6.322-32.7,18.127-32.7Z" transform="matrix(-.48-.87 0.87-.48 402.769989 481.140015)" fill="#fff"/></g></g><g><path d="M34.1,0C56.311,0,74.315,7.949,74.315,17.755s-18.004,17.755-40.215,17.755-34.1,1.459-34.1-8.347C0,17.357,11.893,0,34.1,0Z" transform="translate(415.539001 607.791992)" fill="#fff"/><g transform="matrix(-.48 0.87-.87-.48 941.690002 347.609985)"><path d="M34.1,0C56.311,0,74.315,7.949,74.315,17.755s-18.004,17.755-40.215,17.755-34.1,1.459-34.1-8.347C0,17.357,11.893,0,34.1,0Z" transform="matrix(-.48-.87 0.87-.48 482.649994 334.049988)" fill="#fff"/></g></g><g><path d="M24.352,0c7.671205-.052471,14.782249,4.009971,18.633079,10.644823s3.850829,14.824503,0,21.459354-10.961874,10.697294-18.633079,10.644823C12.547,42.749,0,32.475,0,20.67C0,8.865,12.547,0,24.352,0Z" transform="translate(362.140015 577.302979)" fill="#fff"/><g transform="matrix(-.48 0.87-.87-.48 941.690002 347.609985)"><path d="M24.352,0c7.671205-.052471,14.782249,4.009971,18.633079,10.644823s3.850829,14.824503,0,21.459354-10.961874,10.697294-18.633079,10.644823C12.547,42.749,0,32.475,0,20.67C0,8.865,12.547,0,24.352,0Z" transform="matrix(-.48-.87 0.87-.48 481.869995 395.529999)" fill="#fff"/></g></g><g><path d="M32.612,0C52.849,0,73.284,2.94,73.284,22.545s-16.405,35.5-36.642,35.5-36.642-15.896-36.642-35.5C0,2.941,12.375,0,32.612,0Z" transform="translate(398.704987 362.769989)" fill="#f8f8f8"/><g transform="matrix(-.48 0.87-.87-.48 941.690002 347.609985)"><path d="M32.612,0C52.849,0,73.284,2.94,73.284,22.545s-16.405,35.5-36.642,35.5-36.642-15.896-36.642-35.5C0,2.941,12.375,0,32.612,0Z" transform="matrix(-.48-.87 0.87-.48 276.51001 467.559998)" fill="#fff"/></g></g><g><path d="M23.579,0C36.437846,0,46.862,10.424154,46.862,23.283c0,12.859-23.818,11.431-36.676,11.431s-9.886,1.428-9.886-11.431C0.3,10.425716,10.721717,0.002209,23.579,0Z" transform="translate(398.408997 466.614014)" fill="#f8f8f8"/><g transform="matrix(-.48 0.87-.87-.48 941.690002 347.609985)"><path d="M23.579,0C36.437846,0,46.862,10.424154,46.862,23.283c0,12.859-23.818,11.431-36.676,11.431s-9.886,1.428-9.886-11.431C0.3,10.425716,10.721717,0.002209,23.579,0Z" transform="matrix(-.48-.87 0.87-.48 367.480011 417.470001)" fill="#fff"/></g></g><ellipse rx="7.252" ry="7.252" transform="translate(498.551011 557.148973)" fill="#f8f8f8"/><g><ellipse rx="7.252" ry="7.252" transform="translate(484.822007 318.577012)" fill="#f8f8f8"/><g transform="matrix(-.48 0.87-.87-.48 941.690002 347.609985)"><ellipse rx="7.252" ry="7.252" transform="matrix(-.48-.87 0.87-.48 196.10828 413.729786)" fill="#fff"/></g></g><g><path d="M56.438,0C80.68,0,91.159,23.887,91.159,48.129c0,11.641413-4.624533,22.806023-12.856255,31.037745s-19.396332,12.856255-31.037745,12.856255c-24.242,0-21.6-12.258-21.6-36.5C25.66,45.536,-5.021,20.76,0.714,13.231C8.616,2.857,42.183,0,56.438,0Z" transform="translate(515.184021 428.027008)" fill="#f8f8f8"/><g transform="matrix(-.48 0.87-.87-.48 941.690002 347.609985)"><path d="M56.438,0C80.68,0,91.159,23.887,91.159,48.129c0,11.641413-4.624533,22.806023-12.856255,31.037745s-19.396332,12.856255-31.037745,12.856255c-24.242,0-21.6-12.258-21.6-36.5C25.66,45.536,-5.021,20.76,0.714,13.231C8.616,2.857,42.183,0,56.438,0Z" transform="matrix(-.48-.87 0.87-.48 277.109985 334.049988)" fill="#fff"/></g></g></g><path d="M28.167,0C43.723205,0,56.334,12.610795,56.334,28.167s-12.610795,28.167-28.167,28.167-28.167-12.610795-28.167-28.167s12.610795-28.167,28.167-28.167Z" transform="translate(1176.600904 626.92482)" fill="url(#e6GNkqFOlKP46-fill)"/><g id="e6GNkqFOlKP47_to" transform="translate(2697.092513,397.39851)"><g id="e6GNkqFOlKP47_tr" transform="rotate(147.267725)"><g id="e6GNkqFOlKP47_ts" transform="scale(1.000473,1.000473)"><g transform="translate(0,0)"><path d="M19.583,0C30.398392,0,39.166,8.767608,39.166,19.583s-8.767608,19.583-19.583,19.583-19.583-8.767608-19.583-19.583s8.767608-19.583,19.583-19.583Z" transform="matrix(.709022 0.503665-.503665 0.709022 1275.731156 775.373118)" fill="url(#e6GNkqFOlKP48-fill)"/></g></g></g></g></g></svg>